<?xml version="1.0" encoding="UTF-8" standalone="no"?><!DOCTYPE svg PUBLIC "-//W3C//DTD SVG 1.1//EN" "http://www.w3.org/Graphics/SVG/1.1/DTD/svg11.dtd"><svg width="100%" height="100%" viewBox="0 0 478 197" version="1.1" xmlns="http://www.w3.org/2000/svg" xmlns:xlink="http://www.w3.org/1999/xlink" xml:space="preserve" xmlns:serif="http://www.serif.com/" style="fill-rule:evenodd;clip-rule:evenodd;stroke-linejoin:round;stroke-miterlimit:2;"><g transform="matrix(1,0,0,1,-2018,-848.175045)"><g id="Seiiku-Logo-with-margin" serif:id="Seiiku Logo with-margin" transform="matrix(0.318667,0,0,0.420043,2520.537333,1224.113212)"><rect x="-1577" y="-895" width="1500" height="469" style="fill:none;"/><g id="_2026-Seiiku-Logo" serif:id="2026 Seiiku Logo" transform="matrix(3.138075,0,0,2.380711,-1638.876883,-1209.247839)"><g id="Seiiku-Mark" serif:id="Seiiku Mark" transform="matrix(0.897748,0,0,0.897748,55.62803,167.907423)"><path d="M70,20c-27.6,0 -50,22.4 -50,50c0,27.6 22.4,50 50,50c27.6,0 50,-22.4 50,-50c0,-27.6 -22.4,-50 -50,-50Zm0,9.3c22.5,0 40.7,18.2 40.7,40.7c0,22.5 -18.2,40.7 -40.7,40.7c-22.5,0 -40.7,-18.2 -40.7,-40.7c0,-22.5 18.2,-40.7 40.7,-40.7Z" style="fill:#1a1a18;fill-rule:nonzero;"/><path id="shape138" d="M100,70c-21.3,4.8 -25.2,8.7 -30,30c-4.8,-21.3 -8.7,-25.2 -30,-30c21.3,-4.8 25.2,-8.7 30,-30c4.8,21.3 8.7,25.2 30,30Z" style="fill:#1a1a18;fill-rule:nonzero;"/></g><g transform="matrix(1.387405,0,0,1.387405,-141.601523,352.940408)"><g transform="matrix(1,0,0,1,248.77119,-65.602325)"><path d="M0,-44.038c6.899,0 12.359,1.38 16.979,3.24l1.741,11.039l-0.481,0.241c-6.42,-9.54 -16.019,-11.52 -19.678,-11.52c-7.14,0 -9.241,3.479 -9.241,6.419c0,3.42 3.96,6 10.92,7.92l6.9,1.86c8.58,2.34 14.639,5.7 14.639,12c0,7.619 -9.66,12.839 -19.739,12.839c-6.899,0 -12.539,-1.8 -18.18,-4.68l-2.339,-12.419l0.48,-0.18c5.279,8.999 14.039,14.099 22.259,14.099c6.059,0 9.84,-2.879 9.84,-6.9c0,-3.299 -2.281,-5.639 -10.68,-7.979l-7.319,-2.04c-9.06,-2.52 -13.5,-6.9 -13.5,-11.64c0,-5.639 4.74,-12.299 17.399,-12.299" style="fill:#1a1a18;fill-rule:nonzero;"/></g><g transform="matrix(1,0,0,1,282.71359,-78.621425)"><path d="M0,-6.18l19.319,-0.78c-1.08,-6.72 -5.34,-9 -9.479,-9c-5.04,0 -9.6,2.58 -9.84,9.78m11.459,-12.899c7.44,0 15.54,4.319 15.54,15.299l-26.939,-0.06c0.78,7.139 6.12,11.639 14.099,11.639c5.1,0 10.38,-1.739 13.619,-5.339l0.241,0.12c-3.3,7.019 -9.3,10.319 -17.58,10.319c-10.679,0 -17.639,-6.059 -17.639,-15.479c-0,-10.079 9.3,-16.499 18.659,-16.499" style="fill:#1a1a18;fill-rule:nonzero;"/></g><g transform="matrix(1,0,0,1,315.52709,-70.162325)"><path d="M0,-35.998c0,-2.04 1.98,-3.66 4.44,-3.66c2.46,0 4.38,1.62 4.38,3.66c0,2.04 -1.92,3.66 -4.38,3.66c-2.46,0 -4.44,-1.62 -4.44,-3.66m1.32,25.799l0.06,-6.66c0.06,-4.32 -1.38,-6.96 -1.56,-7.079l8.4,-3.601l-0.06,17.34c-0.06,10.799 0.6,12.359 0.9,13.859l-8.64,0c0.421,-1.5 0.78,-3.42 0.9,-13.859" style="fill:#1a1a18;fill-rule:nonzero;"/></g><g transform="matrix(1,0,0,1,330.86889,-70.162325)"><path d="M0,-35.998c0,-2.04 1.979,-3.66 4.439,-3.66c2.46,0 4.38,1.62 4.38,3.66c0,2.04 -1.92,3.66 -4.38,3.66c-2.46,0 -4.439,-1.62 -4.439,-3.66m1.32,25.799l0.06,-6.66c0.059,-4.32 -1.38,-6.96 -1.56,-7.079l8.4,-3.601l-0.061,17.34c-0.059,10.799 0.601,12.359 0.901,13.859l-8.64,0c0.42,-1.5 0.78,-3.42 0.9,-13.859" style="fill:#1a1a18;fill-rule:nonzero;"/></g><g transform="matrix(1,0,0,1,347.52999,-97.281525)"><path d="M0,16.92l0.06,-20.459c0,-4.32 -1.38,-6.66 -1.56,-6.78l8.399,-3.6l-0.059,28.619l15.059,-11.099c1.26,-1.08 2.52,-2.1 3.18,-3.3l7.739,0l0,0.18c-3.359,1.259 -8.759,5.339 -8.759,5.339l-6.24,4.62l10.38,13.26c2.22,2.82 4.44,4.919 7.44,6.899l0,0.18l-11.94,0.06c-0.6,-1.799 -1.26,-2.94 -2.7,-4.919l-8.64,-11.4l-5.519,4.08c0.059,9.299 0.599,10.739 0.899,12.179l-8.639,0c0.421,-1.5 0.84,-3.42 0.9,-13.859" style="fill:#1a1a18;fill-rule:nonzero;"/></g><g transform="matrix(1,0,0,1,420.68039,-94.041025)"><path d="M0,24.659l-8.46,3.6l0,-6.54c-2.64,3.12 -9.42,6.6 -13.56,6.6c-6.959,0 -12.418,-2.58 -12.359,-12.9l0,-8.879c0,-3.9 -0.84,-5.82 -1.559,-6.9l8.519,-3.3l-0.06,18.059c0,6.06 3.12,8.64 8.52,8.7c3.3,0 7.199,-1.26 10.499,-3.96l0.061,-12.599c0,-3.9 -0.781,-5.82 -1.5,-6.9l8.459,-3.3l-0.121,21.419c0,4.32 1.321,6.54 1.561,6.9" style="fill:#1a1a18;fill-rule:nonzero;"/></g></g></g></g></g></svg>